<svg xmlns="http://www.w3.org/2000/svg" width="28.369" height="27.018" viewBox="0 0 28.369 27.018">
  <path id="Path_13766" data-name="Path 13766" d="M3586.148-1011.342v1.44c-.017.088-.036.177-.051.265-.086.5-.136,1.008-.262,1.5a11.543,11.543,0,0,1-5.014,6.852,15.966,15.966,0,0,1-11.665,2.4.8.8,0,0,0-.486.083c-1.756,1.015-3.5,2.044-5.256,3.068-.091.053-.185.1-.3.163,0-.1,0-.169,0-.233.121-1.62.238-3.239.37-4.858a.519.519,0,0,0-.269-.558,12.734,12.734,0,0,1-2.815-2.48,10.365,10.365,0,0,1-1.276-11.994,12.76,12.76,0,0,1,6.207-5.5,16.092,16.092,0,0,1,8.431-1.292,15.013,15.013,0,0,1,8.039,3.251,11.335,11.335,0,0,1,4.033,6.132C3585.979-1012.526,3586.045-1011.929,3586.148-1011.342Zm-15.3,3.2c0,.194-.009.388,0,.581a.537.537,0,0,0,.53.533c.359.014.72.013,1.079,0a.552.552,0,0,0,.561-.564c.009-.184.007-.369.009-.554a1.9,1.9,0,0,1,.633-1.449c.458-.427.883-.891,1.335-1.327a3.753,3.753,0,0,0,1.181-3.15,3.435,3.435,0,0,0-1.631-2.775,4.11,4.11,0,0,0-1.9-.621,4.5,4.5,0,0,0-3.918,1.383,4.133,4.133,0,0,0-.966,1.9c-.089.38.051.622.382.664.43.054.862.093,1.295.121.34.022.474-.1.592-.418a4.4,4.4,0,0,1,.388-.879,1.866,1.866,0,0,1,1.867-.837,1.789,1.789,0,0,1,1.589,1.2,1.972,1.972,0,0,1-.452,2.129,17.521,17.521,0,0,1-1.5,1.513A2.932,2.932,0,0,0,3570.85-1008.139Zm-.123,3.631a1.193,1.193,0,0,0,1.188,1.2,1.206,1.206,0,0,0,1.193-1.2,1.2,1.2,0,0,0-1.18-1.182A1.186,1.186,0,0,0,3570.728-1004.508Z" transform="translate(-3557.779 1022.587)" fill="#a986b7"/>
</svg>
