<svg xmlns="http://www.w3.org/2000/svg" width="204.788" height="164.232" viewBox="0 0 204.788 164.232">
  <g id="Group_6792" data-name="Group 6792" transform="translate(-932.109 -399.479)">
    <g id="Group_6771" data-name="Group 6771" transform="translate(932.109 463.285)">
      <g id="Group_6768" data-name="Group 6768" transform="translate(42.023 54.914)">
        <path id="Path_10831" data-name="Path 10831" d="M1297.323,1456.478h.081a1.1,1.1,0,0,0,1.108-1.173l-4.406-44.008-3.845.343,6.327,44.245A.716.716,0,0,0,1297.323,1456.478Z" transform="translate(-1290.26 -1411.295)" fill="#8cb4f4"/>
      </g>
      <g id="Group_6769" data-name="Group 6769" transform="translate(5.46 54.914)">
        <path id="Path_10832" data-name="Path 10832" d="M979.84,1456.478h-.081a1.1,1.1,0,0,1-1.109-1.173l4.407-44.008,3.845.343-6.328,44.245A.716.716,0,0,1,979.84,1456.478Z" transform="translate(-978.645 -1411.295)" fill="#8cb4f4"/>
      </g>
      <g id="Group_6770" data-name="Group 6770" transform="translate(73.111 54.914)">
        <path id="Path_10833" data-name="Path 10833" d="M1562.273,1456.478h.081a1.1,1.1,0,0,0,1.108-1.173l-4.406-44.008-3.845.343,6.328,44.245A.716.716,0,0,0,1562.273,1456.478Z" transform="translate(-1555.211 -1411.295)" fill="#8cb4f4"/>
      </g>
      <path id="Path_10834" data-name="Path 10834" d="M940.076,991.789l-7.822-38.627c-1-5.23,3.33-10.012,8.956-9.883l15.085.345a11.916,11.916,0,0,1,11.175,8.6l11.444,39.564Z" transform="translate(-932.109 -943.276)" fill="#8cb4f4"/>
      <path id="Path_10835" data-name="Path 10835" d="M980.406,991.789l-7.822-38.627c-1-5.23,3.33-10.012,8.957-9.883l15.085.345a11.916,11.916,0,0,1,11.175,8.6l11.444,39.564Z" transform="translate(-967.707 -943.276)" fill="#8cb4f4"/>
      <path id="Rectangle_4483" data-name="Rectangle 4483" d="M3.522,0h57a3.523,3.523,0,0,1,3.523,3.523V7.045a0,0,0,0,1,0,0H3.523A3.523,3.523,0,0,1,0,3.522v0A3.522,3.522,0,0,1,3.522,0Z" transform="translate(72.01 55.558) rotate(180)" fill="#8cb4f4"/>
      <rect id="Rectangle_4484" data-name="Rectangle 4484" width="41.559" height="7.045" rx="3.522" transform="translate(77.957 55.558) rotate(180)" fill="#8cb4f4"/>
    </g>
    <g id="Group_6778" data-name="Group 6778" transform="translate(1032.849 399.479)">
      <path id="Rectangle_4485" data-name="Rectangle 4485" d="M12.25,0H13A12.249,12.249,0,0,1,25.253,12.249v0A12.249,12.249,0,0,1,13,24.5H12.25A12.25,12.25,0,0,1,0,12.25v0A12.25,12.25,0,0,1,12.25,0Z" transform="translate(0 0)" fill="#c0d8fb"/>
      <path id="Rectangle_4486" data-name="Rectangle 4486" d="M11.188,0h.689A11.188,11.188,0,0,1,23.065,11.188v0A11.188,11.188,0,0,1,11.877,22.377h-.688A11.188,11.188,0,0,1,0,11.188v0A11.188,11.188,0,0,1,11.188,0Z" transform="translate(1.094 1.061)" fill="#dfebfd"/>
      <g id="Group_6774" data-name="Group 6774" transform="translate(2.981 2.774)">
        <g id="Group_6772" data-name="Group 6772" transform="translate(9.122)">
          <circle id="Ellipse_622" data-name="Ellipse 622" cx="0.523" cy="0.523" r="0.523" fill="#b7d3f3"/>
          <path id="Path_10836" data-name="Path 10836" d="M1929.314,431.858a.523.523,0,1,1,.2.711A.523.523,0,0,1,1929.314,431.858Z" transform="translate(-1925.093 -430.596)" fill="#b7d3f3"/>
          <path id="Path_10837" data-name="Path 10837" d="M1958.828,457.74a.523.523,0,1,1-.156.723A.523.523,0,0,1,1958.828,457.74Z" transform="translate(-1950.991 -453.604)" fill="#b7d3f3"/>
          <path id="Path_10838" data-name="Path 10838" d="M1971.961,496.267a.523.523,0,1,1-.523.523A.523.523,0,0,1,1971.961,496.267Z" transform="translate(-1962.333 -487.685)" fill="#b7d3f3"/>
          <path id="Path_10839" data-name="Path 10839" d="M1961.384,539.1a.523.523,0,1,1-.74,0A.523.523,0,0,1,1961.384,539.1Z" transform="translate(-1952.671 -525.353)" fill="#b7d3f3"/>
          <path id="Path_10840" data-name="Path 10840" d="M1933.388,567.164a.523.523,0,1,1-.74,0A.523.523,0,0,1,1933.388,567.164Z" transform="translate(-1927.959 -550.128)" fill="#b7d3f3"/>
          <path id="Path_10841" data-name="Path 10841" d="M1893.837,578.849a.523.523,0,1,1,.523.523A.523.523,0,0,1,1893.837,578.849Z" transform="translate(-1893.837 -560.115)" fill="#b7d3f3"/>
        </g>
        <g id="Group_6773" data-name="Group 6773" transform="translate(0 0.993)">
          <path id="Path_10842" data-name="Path 10842" d="M1859.261,431.858a.523.523,0,1,0-.2.711A.523.523,0,0,0,1859.261,431.858Z" transform="translate(-1853.331 -431.589)" fill="#b7d3f3"/>
          <path id="Path_10843" data-name="Path 10843" d="M1829.748,457.74a.523.523,0,1,0,.156.723A.523.523,0,0,0,1829.748,457.74Z" transform="translate(-1827.434 -454.598)" fill="#b7d3f3"/>
          <path id="Path_10844" data-name="Path 10844" d="M1816.616,496.267a.523.523,0,1,0,.523.523A.523.523,0,0,0,1816.616,496.267Z" transform="translate(-1816.093 -488.678)" fill="#b7d3f3"/>
          <path id="Path_10845" data-name="Path 10845" d="M1827.193,539.1a.523.523,0,1,0,.74,0A.523.523,0,0,0,1827.193,539.1Z" transform="translate(-1825.755 -526.346)" fill="#b7d3f3"/>
          <circle id="Ellipse_623" data-name="Ellipse 623" cx="0.523" cy="0.523" r="0.523" transform="translate(4.569 15.89)" fill="#b7d3f3"/>
        </g>
      </g>
      <g id="Group_6777" data-name="Group 6777" transform="translate(12.485 5.345)">
        <path id="Path_10846" data-name="Path 10846" d="M1897.093,496.79a.523.523,0,1,1,.523.523A.523.523,0,0,1,1897.093,496.79Z" transform="translate(-1897.093 -490.255)" fill="#b7d3f3"/>
        <g id="Group_6775" data-name="Group 6775" transform="translate(0.452)">
          <rect id="Rectangle_4487" data-name="Rectangle 4487" width="0.143" height="6.535" fill="#b7d3f3"/>
        </g>
        <g id="Group_6776" data-name="Group 6776" transform="translate(0.325 3.638)">
          <rect id="Rectangle_4488" data-name="Rectangle 4488" width="4.404" height="0.428" transform="translate(0 2.72) rotate(-38.132)" fill="#b7d3f3"/>
        </g>
      </g>
    </g>
    <g id="Group_6781" data-name="Group 6781" transform="translate(935.354 424.438)">
      <g id="Group_6780" data-name="Group 6780" transform="translate(0 0)">
        <path id="Path_10847" data-name="Path 10847" d="M1261.2,1280.917a20.963,20.963,0,0,1-7.29,7.789h-16.9S1263.659,1276.63,1261.2,1280.917Z" transform="translate(-1204.481 -1201.64)" fill="#233862"/>
        <g id="Group_6779" data-name="Group 6779">
          <path id="Path_10848" data-name="Path 10848" d="M1614.368,1669c-.183,1.773,2.283,2.23,5.142,2.4s1.989.75,5.9,1.5,5.5-.3,5.785-.831c.258-.467-1.557-1.222-3.491-2.073-.244-.106-.487-.216-.731-.326-2.176-.985-3.382-2.959-5.067-4.795-1.6-1.739-3.07-7.269-3.07-7.269l-5.316-1.195s1.443,4.978,1.94,7.1a6.563,6.563,0,0,1-.585,3.693A6.967,6.967,0,0,0,1614.368,1669Z" transform="translate(-1536.815 -1533.897)" fill="#ffb27d"/>
          <path id="Path_10849" data-name="Path 10849" d="M1625.8,1752.621c2.86.173,1.988.75,5.9,1.5s5.5-.3,5.785-.831c.258-.467-1.557-1.222-3.491-2.073l-.031.033a11.167,11.167,0,0,1-5.94.007c-2.586-.732-5.077-2.309-6.859-2.829a6.981,6.981,0,0,0-.509,1.787C1620.471,1751.99,1622.936,1752.448,1625.8,1752.621Z" transform="translate(-1543.1 -1615.11)" fill="#0f2549"/>
          <path id="Path_10850" data-name="Path 10850" d="M1166.424,1119.253c-2.86-2.009-21.781-5.589-31.437-6.625l-10.672-9.265s-9.084,13.455-9.156,23.749c-.034,4.8,2.177,5.276,2.177,5.277s34.213.254,35.713.409c2.455.253,5.693,6.368,6.5,11.938s15.076,28.224,15.076,28.224a17.893,17.893,0,0,0,4.351.872,4.349,4.349,0,0,0,2.165-.583S1172.875,1123.783,1166.424,1119.253Z" transform="translate(-1096.925 -1045.733)" fill="#233862"/>
          <path id="Path_10851" data-name="Path 10851" d="M1538.947,1669c-.183,1.773,2.283,2.23,5.142,2.4s1.989.75,5.9,1.5,5.5-.3,5.785-.831c.258-.467-1.557-1.222-3.491-2.073-.243-.106-.487-.216-.73-.326-2.176-.985-3.382-2.959-5.067-4.795-1.6-1.739-3.07-7.269-3.07-7.269l-5.316-1.195s1.443,4.978,1.94,7.1a6.564,6.564,0,0,1-.585,3.693A6.972,6.972,0,0,0,1538.947,1669Z" transform="translate(-1470.244 -1533.897)" fill="#ffb27d"/>
          <path id="Path_10852" data-name="Path 10852" d="M1550.375,1752.621c2.859.173,1.989.75,5.9,1.5s5.5-.3,5.785-.831c.258-.467-1.557-1.222-3.491-2.073l-.031.033a11.166,11.166,0,0,1-5.939.007c-2.586-.732-5.077-2.309-6.859-2.829a6.966,6.966,0,0,0-.51,1.787C1545.05,1751.99,1547.515,1752.448,1550.375,1752.621Z" transform="translate(-1476.529 -1615.11)" fill="#233862"/>
          <path id="Path_10853" data-name="Path 10853" d="M1090.336,1119.253c-2.485-1.745-9.959-3.1-18.209-4.1a5.549,5.549,0,0,1-4.711-4.165h0l-19.19-7.622s-9.084,13.455-9.156,23.749c-.034,4.8,2.177,5.276,2.177,5.277s34.213.254,35.713.409c2.455.253,5.693,6.368,6.5,11.938s15.076,28.224,15.076,28.224a17.89,17.89,0,0,0,4.351.872,4.349,4.349,0,0,0,2.165-.583S1096.787,1123.783,1090.336,1119.253Z" transform="translate(-1029.765 -1045.733)" fill="#2b478b"/>
          <path id="Path_10854" data-name="Path 10854" d="M994.66,613.918c-2.637-1.385-6.649-1.572-7.3-1.66-7.8-1.048-12.5,10.287-12.771,13.721-.509,6.331-3.858,7.3-8.572,11.261-9.452,7.95-6.68,17.187-1.512,20.619,3.1,2.059,8.567,0,8.567,0,.077.054,14.948-8.313,22.278-12.349C1006.338,643.948,1001.38,617.447,994.66,613.918Z" transform="translate(-959.767 -612.19)" fill="#233862"/>
          <path id="Path_10855" data-name="Path 10855" d="M1164.821,781.755c.034.018-3.466,1.609-5.993.775-2.377-.783-4.471-4.362-4.437-4.367,1.031-.15,2.08-1.167,2.373-7.2l.457.115,7.682,1.942s-.3,2.434-.429,4.734C1164.367,779.687,1164.389,781.525,1164.821,781.755Z" transform="translate(-1131.555 -752.334)" fill="#ffb27d"/>
          <path id="Path_10856" data-name="Path 10856" d="M1184.567,777.806s0,.5-.287,2.765c-4.344-1.1-6.26-2.536-7.611-4.185Z" transform="translate(-1151.219 -757.12)" fill="#ed975d"/>
          <path id="Path_10857" data-name="Path 10857" d="M1166.878,664.65s-10.158,1.654-11.091-4.688-2.872-10.4,3.575-11.723,8.065.91,8.891,2.951S1169.5,664.057,1166.878,664.65Z" transform="translate(-1131.891 -643.658)" fill="#ffb27d"/>
          <path id="Path_10858" data-name="Path 10858" d="M1146.151,640.435s-4.613,7.282-8.731,9.006-6.141.849-6.141.849a17.344,17.344,0,0,0,2.362-6.655,3.123,3.123,0,0,1,1.929-2.51C1138.525,639.942,1144.241,638.076,1146.151,640.435Z" transform="translate(-1111.155 -636.119)" fill="#233862"/>
          <path id="Path_10859" data-name="Path 10859" d="M1223.5,640.318a16.084,16.084,0,0,1,3.817,2.685,12.346,12.346,0,0,1,2.227,6.183s1.334-7.321-1.444-9.838C1225.15,636.68,1223.5,640.318,1223.5,640.318Z" transform="translate(-1192.552 -635.298)" fill="#233862"/>
          <path id="Path_10860" data-name="Path 10860" d="M1106.63,845.534c-.308,20.648-.085,16.333-2.343,18.292-.544.472-2.074.753-4.088.886-6.331.42-17.461-.623-17.884-1.793-1.46-4.049-.429-5.306-1.648-11.5-.127-.659-.284-1.373-.469-2.15-1.016-4.257-2-5.705,1.6-12.545,3.269-6.2,7.112-11.228,7.418-11.046,8.623,5.119,8.918.828,8.918.828S1106.781,835.462,1106.63,845.534Z" transform="translate(-1065.237 -800.62)" fill="#fff"/>
          <path id="Path_10861" data-name="Path 10861" d="M1240.13,832.766s8.825,1.5,9.867,5.316,7.173,26.279,7.173,26.279-4.511.81-6.595-1.273-7.251-19.333-7.251-19.333Z" transform="translate(-1207.234 -806.885)" fill="#fff"/>
          <path id="Path_10862" data-name="Path 10862" d="M1110.8,993.7c-6.331.42-17.461-.623-17.884-1.793-1.46-4.049-.429-5.306-1.648-11.5l3.054-8.6s-.5,9.576,2.319,12.094,11.562,4.862,12.935,6.966A7.705,7.705,0,0,1,1110.8,993.7Z" transform="translate(-1075.838 -929.611)" fill="#ebf3ff"/>
          <path id="Path_10863" data-name="Path 10863" d="M1195.909,1116.824s6.246-1.391,7.254-.836a14.667,14.667,0,0,1,3.779,3.276c.308.7-2.244-.533-3.074-.756a7.4,7.4,0,0,0-2.653.581,8.817,8.817,0,0,1-4.754.477Z" transform="translate(-1168.202 -1056.76)" fill="#ffb27d"/>
          <path id="Path_10864" data-name="Path 10864" d="M1008.5,825.709s-8.84.517-11.744,4.566c-4.087,5.7-12.195,29.994-7.548,33.234,5.233,3.649,23.816.955,23.816.955s.619-2.891-.242-4.289-14.843-3.657-15.488-4.3,8.067-12.584,8.067-14.52S1008.5,825.709,1008.5,825.709Z" transform="translate(-984.519 -800.656)" fill="#fff"/>
          <path id="Path_10865" data-name="Path 10865" d="M1260.31,1131.787a12.082,12.082,0,0,0,1.738,1.89,1.282,1.282,0,0,0,.706.151l-.882-1.587Z" transform="translate(-1225.046 -1070.821)" fill="#ffb27d"/>
          <path id="Path_10866" data-name="Path 10866" d="M1257.733,1116.97l3.805,1.848a.678.678,0,0,1-.63.244,9.07,9.07,0,0,1-1.65-.453Z" transform="translate(-1222.772 -1057.742)" fill="#ffb27d"/>
        </g>
      </g>
    </g>
    <g id="Group_6782" data-name="Group 6782" transform="translate(966.66 468.799)">
      <path id="Path_10867" data-name="Path 10867" d="M1244.253,1143.706H1226.58a1.409,1.409,0,0,1,1.409-1.409h16.264Z" transform="translate(-1226.58 -1124.458)" fill="#ed7d2b"/>
      <path id="Path_10868" data-name="Path 10868" d="M1326.13,990.267h27.323l-6.554,19.247h-27.5Z" transform="translate(-1308.509 -990.267)" fill="#ed7d2b"/>
      <path id="Path_10869" data-name="Path 10869" d="M1356.881,990.264l-6.554,19.247h-27.5l6.731-19.247Z" transform="translate(-1311.534 -990.264)" fill="#f99746"/>
      <path id="Path_10870" data-name="Path 10870" d="M1467.213,1060.752a1.776,1.776,0,0,1-1.639,1.331,1.025,1.025,0,0,1-1.024-1.331,1.777,1.777,0,0,1,1.639-1.332A1.025,1.025,0,0,1,1467.213,1060.752Z" transform="translate(-1436.597 -1051.306)" fill="#fff"/>
    </g>
    <g id="Group_6786" data-name="Group 6786" transform="translate(955.512 488.046)">
      <rect id="Rectangle_4489" data-name="Rectangle 4489" width="121.561" height="4.33" rx="2.165" transform="translate(4.128 0)" fill="#182d4f"/>
      <g id="Group_6783" data-name="Group 6783" transform="translate(114.155 2.203)">
        <path id="Path_10871" data-name="Path 10871" d="M2118.025,1246.536l.051-.006a1.1,1.1,0,0,0,.97-1.223l-10.67-72.227-3.906.112,12.554,72.617A.9.9,0,0,0,2118.025,1246.536Z" transform="translate(-2104.47 -1173.08)" fill="#182d4f"/>
      </g>
      <g id="Group_6784" data-name="Group 6784" transform="translate(0 2.203)">
        <path id="Path_10872" data-name="Path 10872" d="M1132.594,1246.536l-.051-.006a1.1,1.1,0,0,1-.97-1.223l10.67-72.227,3.906.112-12.554,72.617A.9.9,0,0,1,1132.594,1246.536Z" transform="translate(-1131.564 -1173.08)" fill="#182d4f"/>
      </g>
      <g id="Group_6785" data-name="Group 6785" transform="translate(24.702 2.203)">
        <path id="Path_10873" data-name="Path 10873" d="M1343.12,1246.536l-.051-.006a1.1,1.1,0,0,1-.97-1.223l10.67-72.227,3.906.112-12.554,72.617A.9.9,0,0,1,1343.12,1246.536Z" transform="translate(-1342.09 -1173.08)" fill="#182d4f"/>
      </g>
    </g>
    <g id="Group_6787" data-name="Group 6787" transform="translate(1034.836 417.396)">
      <path id="Path_10874" data-name="Path 10874" d="M1887.372,1717.17h21.173c1.018-1.243.643-5.829.489-7.326-.032-.3-.054-.477-.054-.477s-7.23-5.783-8.224-1.355c-.03.139-.067.275-.107.409-1.251,4.142-6.864,6.024-10.1,6.548A3.671,3.671,0,0,0,1887.372,1717.17Z" transform="translate(-1878.014 -1570.919)" fill="#233862"/>
      <path id="Path_10875" data-name="Path 10875" d="M2037.4,1212.259c-.764,0-36.269,6.666-42.142,13.936-2.934,3.632-3.37,45.573-3.37,45.573s3.629,4.5,11.469,1.887c0,0,5.748-28.7,5.323-37.4-.117-2.407,24.258-.348,28.72-1.5s15.363-10.86,12.961-15.588S2037.4,1212.259,2037.4,1212.259Z" transform="translate(-1970.264 -1134.809)" fill="#233862"/>
      <path id="Path_10876" data-name="Path 10876" d="M1922.461,1124.727s-7.162.1-8.856.823-5.129,2.392-4.21,2.648,5.307-.105,6.255.04a15.981,15.981,0,0,0,2.7-.04h3.289Z" transform="translate(-1897.318 -1057.547)" fill="#ffb27d"/>
      <path id="Path_10877" data-name="Path 10877" d="M1841.261,906.5a13.089,13.089,0,0,0-4.813-2.084,20.835,20.835,0,0,1-3.462-.714c-2.188-.771-6.565-4.707-6.234-5.169,1.062-1.48,6.173,1.652,7.065,1.316s-1.715-2.19-.808-2.841c.474-.341,1.581,1.366,2.487,1.537,1.225.232,2.183,1.962,2.551,2.052a28.629,28.629,0,0,1,3.862,2.514Z" transform="translate(-1824.492 -856.51)" fill="#ffb27d"/>
      <path id="Path_10878" data-name="Path 10878" d="M2054.16,804.589s-5.452,1.69-10.823,16.481-7.411,15.59-9.364,16.17-19.09,3.992-19.09,3.992v4.39h26.406s9.9-9.419,12.87-15.76S2054.16,804.589,2054.16,804.589Z" transform="translate(-1990.564 -774.973)" fill="#ed7d2b"/>
      <path id="Path_10879" data-name="Path 10879" d="M1807.619,1717.17h21.173c1.018-1.243.643-5.829.489-7.326-.032-.3-.053-.477-.053-.477s-7.23-5.783-8.224-1.355c-.03.139-.067.275-.107.409-1.251,4.142-6.864,6.024-10.1,6.548A3.671,3.671,0,0,0,1807.619,1717.17Z" transform="translate(-1807.619 -1570.919)" fill="#1b3051"/>
      <path id="Path_10880" data-name="Path 10880" d="M1948.227,1212.259c-.765,0-36.269,6.666-42.142,13.936-2.934,3.632-3.37,45.573-3.37,45.573s3.63,4.5,11.469,1.887c0,0,5.747-28.7,5.323-37.4-.117-2.407,24.259-.348,28.72-1.5s15.362-10.86,12.96-15.588S1948.227,1212.259,1948.227,1212.259Z" transform="translate(-1891.557 -1134.809)" fill="#2b478b"/>
      <path id="Path_10881" data-name="Path 10881" d="M2292.82,701.685a34.473,34.473,0,0,0,7.547-1.643c2.893-.939,5.226-2.311,3.722-4.955-1.385-2.437-3.626-7.882-3.475-12.392l-5.384,4.339-3.657,2.947a43.841,43.841,0,0,0,.415,4.782c.073.555.159,1.154.26,1.794a1.3,1.3,0,0,1-.6,1.31l-.083.051A2.042,2.042,0,0,0,2292.82,701.685Z" transform="translate(-2233.928 -667.381)" fill="#ffb27d"/>
      <path id="Path_10882" data-name="Path 10882" d="M2298.5,721.634a8.9,8.9,0,0,0,.135,2.96,15.29,15.29,0,0,0,6.308-3.132c-1.66-.456-2.264-2.249-3.5-2.082Z" transform="translate(-2240.856 -699.751)" fill="#ed975d"/>
      <path id="Path_10883" data-name="Path 10883" d="M2254.8,587.122s12.541,2.083,13.719-5.746,3.589-12.834-4.369-14.5-9.966,1.092-10.995,3.61S2251.567,586.378,2254.8,587.122Z" transform="translate(-2200.169 -564.709)" fill="#ffb27d"/>
      <path id="Path_10884" data-name="Path 10884" d="M2242.622,554.494c-.539,1.885.9,4.182,3.322,4.938,3.592,1.122,2.8,5.528,4.414,5.468s2.268-2.532,3.711-.557c1.231,1.685-1.024,3.682-.869,4.606.267,1.586,2.751,4.832,4.99,4.669s6.429-10.8,5.591-14.1-4.19-6.764-7.362-7.243-7.579.891-8.6.891S2242.913,553.475,2242.622,554.494Z" transform="translate(-2191.482 -552.177)" fill="#2b478b"/>
      <path id="Path_10885" data-name="Path 10885" d="M2255.857,784.782c-1.813-7.3-6.823-14.951-10.21-14.945-5.772.011-14.07,1.534-17.421,9.8-2.467,6.087-5.759,41.1-2.039,43.593,8.5,5.693,28.214,17.314,31.716,5.463C2261.111,817.833,2259,797.444,2255.857,784.782Z" transform="translate(-2175.597 -744.298)" fill="#f99746"/>
      <path id="Path_10886" data-name="Path 10886" d="M1967.765,802.308a6.837,6.837,0,0,0-10.58-2.947,64.7,64.7,0,0,0-7.256,6.78c-10.772,11.471-12.961,11.4-14.985,11.163s-19.117-3.865-19.117-3.865a5.171,5.171,0,0,0-1.391,1.689,3.183,3.183,0,0,0-.342,2.344c-.67-.433,6.059,4.205,9.408,6.055a92.025,92.025,0,0,0,13.742,5.6,3.547,3.547,0,0,0,2.309-.034c3.94-1.42,17.171-6.6,27.942-15.574C1970.335,811.155,1969.292,806.28,1967.765,802.308Z" transform="translate(-1901.525 -769.085)" fill="#f99746"/>
      <path id="Path_10887" data-name="Path 10887" d="M2296.96,748.288l-1.307-2.944s-11.7.954-13.664,7.612C2281.989,752.956,2291.057,748.431,2296.96,748.288Z" transform="translate(-2226.33 -722.679)" fill="#fff"/>
    </g>
    <g id="Group_6791" data-name="Group 6791" transform="translate(1067.412 463.493)">
      <g id="Group_6788" data-name="Group 6788" transform="translate(59.394 54.706)">
        <path id="Path_10888" data-name="Path 10888" d="M2598.51,1456.478h.081a1.1,1.1,0,0,0,1.108-1.173l-4.406-44.008-3.845.343,6.328,44.245A.716.716,0,0,0,2598.51,1456.478Z" transform="translate(-2591.447 -1411.295)" fill="#8cb4f4"/>
      </g>
      <g id="Group_6789" data-name="Group 6789" transform="translate(36.713 54.706)">
        <path id="Path_10889" data-name="Path 10889" d="M2405.206,1456.478h.081a1.1,1.1,0,0,0,1.109-1.173l-4.406-44.008-3.845.343,6.327,44.245A.717.717,0,0,0,2405.206,1456.478Z" transform="translate(-2398.143 -1411.295)" fill="#8cb4f4"/>
      </g>
      <g id="Group_6790" data-name="Group 6790" transform="translate(0 54.706)">
        <path id="Path_10890" data-name="Path 10890" d="M2086.448,1456.478h-.081a1.1,1.1,0,0,1-1.108-1.173l4.406-44.008,3.845.343-6.327,44.245A.716.716,0,0,1,2086.448,1456.478Z" transform="translate(-2085.254 -1411.295)" fill="#73a2e5"/>
      </g>
      <path id="Path_10891" data-name="Path 10891" d="M2349.947,993.522l4.182-36.756c.549-5.3-1.224-10.483-8.868-10.885l-13.447-.819c-7.97-.329-11.568,6.3-12.578,11.411l-7.983,40.4Z" transform="translate(-2284.736 -945.05)" fill="#8cb4f4"/>
      <path id="Rectangle_4490" data-name="Rectangle 4490" d="M3.522,0H64.043a0,0,0,0,1,0,0V3.522a3.522,3.522,0,0,1-3.522,3.522h-57A3.522,3.522,0,0,1,0,3.522v0A3.522,3.522,0,0,1,3.522,0Z" transform="translate(1.101 48.305)" fill="#73a2e5"/>
      <path id="Rectangle_4491" data-name="Rectangle 4491" d="M3.522,0h35.1a0,0,0,0,1,0,0V3.522A3.523,3.523,0,0,1,35.1,7.045H3.522A3.522,3.522,0,0,1,0,3.522v0A3.522,3.522,0,0,1,3.522,0Z" transform="translate(26.518 48.305)" fill="#8cb4f4"/>
    </g>
  </g>
</svg>
