<svg xmlns="http://www.w3.org/2000/svg" width="70.313" height="28" viewBox="0 0 70.313 28">
  <g id="Group_16237" data-name="Group 16237" transform="translate(-544 -552)">
    <path id="Path_11765" data-name="Path 11765" d="M327,551h70.313V523H327l9.107,14.094Z" transform="translate(217 29)" fill="#4e6f61"/>
    <text id="Paid_" data-name="Paid " transform="translate(578 571)" fill="#fff" font-size="12" font-family="Poppins-Medium, Poppins" font-weight="500"><tspan x="0" y="0">Paid </tspan></text>
    <g id="Group_15915" data-name="Group 15915" transform="translate(561.227 559)">
      <g id="Group_13593" data-name="Group 13593" transform="translate(0 0)">
        <g id="Group_13592" data-name="Group 13592" transform="translate(1.397)">
          <path id="Path_12153" data-name="Path 12153" d="M-453.284,104.141V108h-1.09v-3.859a2.58,2.58,0,0,0-2.486-2.661,2.58,2.58,0,0,0-2.486,2.661V108h-1.091v-3.859a3.7,3.7,0,0,1,3.576-3.811A3.7,3.7,0,0,1-453.284,104.141Z" transform="translate(460.437 -100.33)" fill="#ebebeb"/>
          <path id="Path_12154" data-name="Path 12154" d="M-460.436,109.828l1.09.044v2.812h-1.09Z" transform="translate(460.437 -105.014)" fill="#c7c7c7"/>
          <path id="Path_12155" data-name="Path 12155" d="M-447.387,110.359v2.564h-1.09v-2.609Z" transform="translate(454.539 -105.253)" fill="#c7c7c7"/>
        </g>
        <rect id="Rectangle_7127" data-name="Rectangle 7127" width="9.948" height="8.255" transform="translate(0 6.242)" fill="#ffc727"/>
        <path id="Path_12156" data-name="Path 12156" d="M-453.865,119.1l.416,1.975h-1.767l.416-1.975a.884.884,0,0,1-.416-.747.881.881,0,0,1,.883-.883.881.881,0,0,1,.883.883A.884.884,0,0,1-453.865,119.1Z" transform="translate(459.26 -108.78)" fill="#263238"/>
      </g>
    </g>
  </g>
</svg>
