<svg xmlns="http://www.w3.org/2000/svg" width="30.837" height="29.335" viewBox="0 0 30.837 29.335">
  <g id="Teamwork" transform="translate(-1.84 -3.564)">
    <path id="Path_12125" data-name="Path 12125" d="M21.884,8.573l1.51,1.1a1.014,1.014,0,0,1,.368,1.133l-.576,1.775a1.014,1.014,0,0,0,1.56,1.133l1.51-1.1a1.013,1.013,0,0,1,1.191,0l1.51,1.1a1.014,1.014,0,0,0,1.56-1.133L29.94,10.8a1.014,1.014,0,0,1,.368-1.133l1.51-1.1a1.014,1.014,0,0,0-.6-1.834H29.356a1.014,1.014,0,0,1-.964-.7l-.577-1.775a1.014,1.014,0,0,0-1.928,0l-.577,1.775a1.014,1.014,0,0,1-.964.7H22.48a1.014,1.014,0,0,0-.6,1.834Z" transform="translate(-9.593)" fill="#79a2a5"/>
    <path id="Path_12126" data-name="Path 12126" d="M28.339,37.064a.6.6,0,0,1-.363-.551.612.612,0,0,1,.19-.449c.037-.035.073-.07.1-.1a3.732,3.732,0,0,0-3.41-6.234,3.647,3.647,0,0,0-2.944,2.86,3.732,3.732,0,0,0,1.029,3.464.633.633,0,0,1,.2.45v0a.6.6,0,0,1-.363.557,6.142,6.142,0,0,0-3.3,3.273,7.815,7.815,0,0,0-.651,3.218v.8a1.3,1.3,0,0,0,1.3,1.3H30.993a1.3,1.3,0,0,0,1.3-1.3v-.806a7.8,7.8,0,0,0-.652-3.217A6.141,6.141,0,0,0,28.339,37.064Z" transform="translate(-8.3 -12.758)" fill="#79a2a5"/>
    <path id="Path_12127" data-name="Path 12127" d="M50.843,36.815a6.141,6.141,0,0,0-3.3-3.268A.6.6,0,0,1,47.176,33a.612.612,0,0,1,.19-.449c.037-.035.073-.07.1-.1a3.731,3.731,0,0,0-3.409-6.233,3.647,3.647,0,0,0-2.944,2.86,3.732,3.732,0,0,0,1.029,3.464.633.633,0,0,1,.2.449v0a.6.6,0,0,1-.363.557,6.047,6.047,0,0,0-1.634,1,7.534,7.534,0,0,1,3.077,3.5,9.121,9.121,0,0,1,.775,3.786v.309h6a1.3,1.3,0,0,0,1.3-1.3v-.806A7.8,7.8,0,0,0,50.843,36.815Z" transform="translate(-18.819 -11.039)" fill="#79a2a5"/>
    <path id="Path_12128" data-name="Path 12128" d="M12.995,34.545a6.043,6.043,0,0,0-1.637-1A.6.6,0,0,1,10.995,33a.612.612,0,0,1,.19-.449c.037-.035.072-.07.1-.1a3.731,3.731,0,0,0-3.41-6.233,3.647,3.647,0,0,0-2.944,2.86A3.732,3.732,0,0,0,5.96,32.539a.632.632,0,0,1,.2.449v0a.6.6,0,0,1-.363.557,6.143,6.143,0,0,0-3.3,3.272A7.815,7.815,0,0,0,1.84,40.04v.8a1.3,1.3,0,0,0,1.3,1.3h6v-.3a9.143,9.143,0,0,1,.773-3.786,7.535,7.535,0,0,1,3.08-3.507Z" transform="translate(0 -11.039)" fill="#79a2a5"/>
  </g>
</svg>
