<svg width="32" height="32" viewBox="0 0 32 32" fill="none" xmlns="http://www.w3.org/2000/svg">
<path fill-rule="evenodd" clip-rule="evenodd" d="M5 7.5H3C2.602 7.5 2.2205 7.658 1.9395 7.9395C1.658 8.2205 1.5 8.602 1.5 9C1.5 10.2545 1.5 12.5405 1.5 15C1.5 15.276 1.724 15.5 2 15.5C2.276 15.5 2.5 15.276 2.5 15V9C2.5 8.8675 2.5525 8.74 2.6465 8.6465C2.74 8.5525 2.8675 8.5 3 8.5H5V19C5 19.8285 5.6715 20.5 6.5 20.5H26C26.398 20.5 26.7795 20.342 27.0605 20.0605C27.342 19.7795 27.5 19.398 27.5 19C27.5 17.414 27.5 8.5 27.5 8.5H29C29.1325 8.5 29.26 8.5525 29.3535 8.6465C29.4475 8.74 29.5 8.8675 29.5 9V21.5H2.5V17C2.5 16.724 2.276 16.5 2 16.5C1.724 16.5 1.5 16.724 1.5 17C1.5 19.8255 1.5 22.577 1.5 24C1.5 24.398 1.658 24.7795 1.9395 25.0605C2.2205 25.342 2.602 25.5 3 25.5H13.303C13.223 26.841 12.8755 28.5735 11.5945 29.5H10.75C10.474 29.5 10.25 29.724 10.25 30C10.25 30.276 10.474 30.5 10.75 30.5H21.25C21.526 30.5 21.75 30.276 21.75 30C21.75 29.724 21.526 29.5 21.25 29.5H20.4055C19.1245 28.573 18.777 26.841 18.697 25.5H29C29.398 25.5 29.7795 25.342 30.0605 25.0605C30.342 24.7795 30.5 24.398 30.5 24C30.5 20.986 30.5 12.014 30.5 9C30.5 8.602 30.342 8.2205 30.0605 7.9395C29.7795 7.658 29.398 7.5 29 7.5H27.5V3C27.5 2.1715 26.8285 1.5 26 1.5H6.5C5.6715 1.5 5 2.1715 5 3V7.5ZM14.716 16H14.25C13.974 16 13.75 16.224 13.75 16.5C13.75 16.776 13.974 17 14.25 17H14.341L14.032 17.8245C13.935 18.083 14.066 18.3715 14.3245 18.468C14.583 18.565 14.8715 18.434 14.968 18.1755L15.409 17H16.591L17.032 18.1755C17.1285 18.434 17.417 18.565 17.6755 18.468C17.934 18.3715 18.065 18.083 17.968 17.8245L17.659 17H17.75C18.026 17 18.25 16.776 18.25 16.5C18.25 16.224 18.026 16 17.75 16H17.284L16.468 13.8245C16.395 13.6295 16.2085 13.5 16 13.5C15.7915 13.5 15.605 13.6295 15.532 13.8245L14.716 16ZM15.784 16H16.216L16 15.424L15.784 16ZM7.6465 10.8535L8.6465 11.8535C8.8415 12.049 9.1585 12.049 9.3535 11.8535L11.337 9.8705C11.532 9.675 11.532 9.3585 11.337 9.163C11.1415 8.968 10.825 8.968 10.6295 9.163L9 10.793L8.3535 10.1465C8.1585 9.9515 7.8415 9.9515 7.6465 10.1465C7.4515 10.3415 7.4515 10.6585 7.6465 10.8535ZM13.5 12H20.5C20.776 12 21 11.776 21 11.5C21 11.224 20.776 11 20.5 11H13.5C13.224 11 13 11.224 13 11.5C13 11.776 13.224 12 13.5 12ZM13.5 10H24C24.276 10 24.5 9.776 24.5 9.5C24.5 9.224 24.276 9 24 9H13.5C13.224 9 13 9.224 13 9.5C13 9.776 13.224 10 13.5 10ZM13.5 7H20.5C20.776 7 21 6.776 21 6.5C21 6.224 20.776 6 20.5 6H13.5C13.224 6 13 6.224 13 6.5C13 6.776 13.224 7 13.5 7ZM7.6465 5.8535L8.6465 6.8535C8.8415 7.049 9.1585 7.049 9.3535 6.8535L11.337 4.8705C11.532 4.675 11.532 4.3585 11.337 4.163C11.1415 3.968 10.825 3.968 10.6295 4.163L9 5.793L8.3535 5.1465C8.1585 4.9515 7.8415 4.9515 7.6465 5.1465C7.4515 5.3415 7.4515 5.6585 7.6465 5.8535ZM13.5 5H24C24.276 5 24.5 4.776 24.5 4.5C24.5 4.224 24.276 4 24 4H13.5C13.224 4 13 4.224 13 4.5C13 4.776 13.224 5 13.5 5Z" fill="#BF7D89"/>
</svg>
