<svg xmlns="http://www.w3.org/2000/svg" width="29.754" height="27.261" viewBox="0 0 29.754 27.261">
  <path id="Path_13505" data-name="Path 13505" d="M-566.246,23.6V41.559c-.012.015-.03.028-.035.045a2.475,2.475,0,0,1-2.759,2.107h-8.387c.028.339.043.628.076.915a5.369,5.369,0,0,0,.54,1.974,1.39,1.39,0,0,0,1.246.858.725.725,0,0,1,.171.03.584.584,0,0,1,.449.57.577.577,0,0,1-.458.59,1.831,1.831,0,0,1-.375.031q-5.317,0-10.634,0a2.134,2.134,0,0,1-.433-.032.541.541,0,0,1-.451-.5c-.049-.384.188-.659.641-.686a1.28,1.28,0,0,0,1.121-.714,5.259,5.259,0,0,0,.477-1.236c.132-.576.179-1.172.268-1.8h-.458q-4.111,0-8.222,0a2.456,2.456,0,0,1-2.444-1.85c-.026-.1-.059-.2-.089-.3V23.6a5.383,5.383,0,0,1,.208-.66,2.5,2.5,0,0,1,2.482-1.523q6.827.007,13.654,0,5.375,0,10.749,0a2.482,2.482,0,0,1,2.565,1.849C-566.312,23.382-566.278,23.492-566.246,23.6Zm-13.636,15.082c.044-.015.067-.016.078-.028a1.681,1.681,0,0,0,.112-.133,3.064,3.064,0,0,1,1.73-1.2,2.825,2.825,0,0,0,.709-.251,5.8,5.8,0,0,0,.674-.517,2.192,2.192,0,0,1,.36-.274.35.35,0,0,0,.205-.476,11.906,11.906,0,0,0-.687-1.365,3.259,3.259,0,0,1-.53-1.781,4.6,4.6,0,0,1,.189-.977,1.432,1.432,0,0,0,.063-.272c0-.426-.009-.852-.012-1.278a1.911,1.911,0,0,1,.687-1.509c.207-.181.482-.282.708-.444a3.328,3.328,0,0,1,2.522-.5,3.023,3.023,0,0,1,2.542,2.168,1.157,1.157,0,0,1-.146,1.017,1.183,1.183,0,0,0-.195.9,2.76,2.76,0,0,1,.04,1.541,9.241,9.241,0,0,1-1.081,2.417.384.384,0,0,0,.071.547,4.584,4.584,0,0,1,.487.375,2.589,2.589,0,0,0,.444.359,6.444,6.444,0,0,1,2.178,1.04V23.9h-11.148ZM-593.505,23.9V38.228c.839-.384,1.679-.766,2.517-1.154a2.772,2.772,0,0,0,.321-.208c-.138-.072-.261-.1-.317-.172a1.622,1.622,0,0,0-.676-.446.609.609,0,0,1-.287-.9,1.147,1.147,0,0,0,0-1.2,3.593,3.593,0,0,1-.378-.963,5.017,5.017,0,0,1,1.218-4.2,2.646,2.646,0,0,1,2.034-1.082.353.353,0,0,0,.139-.033,2.636,2.636,0,0,1,2.848.449,4.709,4.709,0,0,1,1.537,2.04,4.1,4.1,0,0,1-.087,3.948.849.849,0,0,0,.02.942.689.689,0,0,1-.435,1.1.69.69,0,0,0-.255.114c-.164.131-.315.28-.524.469.592.259,1.206.485,1.778.789s1.116.69,1.677,1.043V23.9Zm13.631,17.344a1.259,1.259,0,0,0-1.259-1.249,1.26,1.26,0,0,0-1.241,1.267,1.243,1.243,0,0,0,1.258,1.241A1.242,1.242,0,0,0-579.874,41.24Z" transform="translate(596 -21.419)" fill="#7ba994"/>
</svg>
