<svg width="71" height="28" viewBox="0 0 71 28" fill="none" xmlns="http://www.w3.org/2000/svg">
<path d="M0 28H70.313V0H0L9.10699 14.094L0 28Z" fill="#927076"/>
<path d="M30.228 9.576V11.22H26.796V12.996H29.364V14.592H26.796V18H24.744V9.576H30.228ZM33.3585 12.42C33.5985 12.052 33.8985 11.764 34.2585 11.556C34.6185 11.34 35.0185 11.232 35.4585 11.232V13.404H34.8945C34.3825 13.404 33.9985 13.516 33.7425 13.74C33.4865 13.956 33.3585 14.34 33.3585 14.892V18H31.3065V11.304H33.3585V12.42ZM42.7513 14.544C42.7513 14.736 42.7393 14.936 42.7153 15.144H38.0713C38.1033 15.56 38.2353 15.88 38.4673 16.104C38.7073 16.32 38.9993 16.428 39.3433 16.428C39.8553 16.428 40.2113 16.212 40.4113 15.78H42.5953C42.4833 16.22 42.2793 16.616 41.9833 16.968C41.6953 17.32 41.3313 17.596 40.8913 17.796C40.4513 17.996 39.9593 18.096 39.4153 18.096C38.7593 18.096 38.1753 17.956 37.6633 17.676C37.1513 17.396 36.7513 16.996 36.4633 16.476C36.1753 15.956 36.0313 15.348 36.0313 14.652C36.0313 13.956 36.1713 13.348 36.4513 12.828C36.7393 12.308 37.1393 11.908 37.6513 11.628C38.1633 11.348 38.7513 11.208 39.4153 11.208C40.0633 11.208 40.6393 11.344 41.1433 11.616C41.6473 11.888 42.0393 12.276 42.3193 12.78C42.6073 13.284 42.7513 13.872 42.7513 14.544ZM40.6513 14.004C40.6513 13.652 40.5313 13.372 40.2913 13.164C40.0513 12.956 39.7513 12.852 39.3913 12.852C39.0473 12.852 38.7553 12.952 38.5153 13.152C38.2833 13.352 38.1393 13.636 38.0833 14.004H40.6513ZM50.1458 14.544C50.1458 14.736 50.1338 14.936 50.1098 15.144H45.4658C45.4978 15.56 45.6298 15.88 45.8618 16.104C46.1018 16.32 46.3938 16.428 46.7378 16.428C47.2498 16.428 47.6058 16.212 47.8058 15.78H49.9898C49.8778 16.22 49.6738 16.616 49.3778 16.968C49.0898 17.32 48.7258 17.596 48.2858 17.796C47.8458 17.996 47.3538 18.096 46.8098 18.096C46.1538 18.096 45.5698 17.956 45.0578 17.676C44.5458 17.396 44.1458 16.996 43.8578 16.476C43.5698 15.956 43.4258 15.348 43.4258 14.652C43.4258 13.956 43.5658 13.348 43.8458 12.828C44.1338 12.308 44.5338 11.908 45.0458 11.628C45.5578 11.348 46.1458 11.208 46.8098 11.208C47.4578 11.208 48.0338 11.344 48.5378 11.616C49.0418 11.888 49.4338 12.276 49.7138 12.78C50.0018 13.284 50.1458 13.872 50.1458 14.544ZM48.0458 14.004C48.0458 13.652 47.9258 13.372 47.6858 13.164C47.4458 12.956 47.1458 12.852 46.7858 12.852C46.4418 12.852 46.1498 12.952 45.9098 13.152C45.6778 13.352 45.5338 13.636 45.4778 14.004H48.0458Z" fill="white"/>
</svg>
