<svg xmlns="http://www.w3.org/2000/svg" width="178" height="189.898" viewBox="0 0 178 189.898">
  <g id="Group_6753" data-name="Group 6753" transform="translate(-668.284 53.059)">
    <g id="Group_6748" data-name="Group 6748" transform="translate(668.284 -53.059)">
      <g id="Group_6727" data-name="Group 6727">
        <rect id="Rectangle_4446" data-name="Rectangle 4446" width="123.828" height="173.541" rx="7" transform="translate(0 15.963)" fill="#2f406e"/>
        <rect id="Rectangle_4447" data-name="Rectangle 4447" width="109.157" height="151.421" transform="translate(7.335 23.356)" fill="#fff"/>
        <g id="Group_6726" data-name="Group 6726" transform="translate(23.848)">
          <path id="Path_10779" data-name="Path 10779" d="M776.415-41.742H767.59c-.78-6.36-7.061-11.317-14.693-11.317S738.983-48.1,738.2-41.742h-8.826A14.547,14.547,0,0,0,714.83-27.2v2.566h76.132V-27.2A14.547,14.547,0,0,0,776.415-41.742ZM752.9-37.935a4.938,4.938,0,0,1-4.938-4.938,4.938,4.938,0,0,1,4.938-4.938,4.939,4.939,0,0,1,4.939,4.938A4.939,4.939,0,0,1,752.9-37.935Z" transform="translate(-714.83 53.059)" fill="#96afd6"/>
          <g id="Group_6725" data-name="Group 6725" transform="translate(1.282 11.317)">
            <path id="Path_10780" data-name="Path 10780" d="M728.314-13.858l8.6-17.112H730.6a14.5,14.5,0,0,0-5.141.938l-8.124,16.175Z" transform="translate(-717.332 30.97)" fill="#a6bbdc"/>
            <path id="Path_10781" data-name="Path 10781" d="M827.531-13.858l7.156-14.248a14.481,14.481,0,0,0-8.668-2.865h-.876l-8.6,17.112Z" transform="translate(-765.716 30.97)" fill="#a6bbdc"/>
            <path id="Path_10782" data-name="Path 10782" d="M852.8-17.9a14.558,14.558,0,0,0-2.218-3.376l-6.1,12.148h3.914Z" transform="translate(-779.335 26.245)" fill="#a6bbdc"/>
          </g>
          <rect id="Rectangle_4448" data-name="Rectangle 4448" width="76.132" height="2.126" transform="translate(0 26.303)" fill="#b0c3e0" opacity="0.5" style="mix-blend-mode: multiply;isolation: isolate"/>
        </g>
      </g>
      <g id="Group_6731" data-name="Group 6731" transform="translate(16.894 67.234)">
        <rect id="Rectangle_4449" data-name="Rectangle 4449" width="55.11" height="0.827" transform="translate(21.702 9.343)" fill="#c0cfe7"/>
        <rect id="Rectangle_4450" data-name="Rectangle 4450" width="55.11" height="0.827" transform="translate(21.702 13.172)" fill="#c0cfe7"/>
        <rect id="Rectangle_4451" data-name="Rectangle 4451" width="55.11" height="0.827" transform="translate(21.702 17)" fill="#c0cfe7"/>
        <g id="Group_6728" data-name="Group 6728" transform="translate(21.588 3.783)">
          <rect id="Rectangle_4452" data-name="Rectangle 4452" width="28.733" height="2.737" fill="#6e7a99"/>
        </g>
        <g id="Group_6730" data-name="Group 6730">
          <g id="Group_6729" data-name="Group 6729" transform="translate(0 3.783)">
            <rect id="Rectangle_4453" data-name="Rectangle 4453" width="13.987" height="13.987" fill="none" stroke="#b5c7e2" stroke-width="2"/>
          </g>
          <path id="Path_10783" data-name="Path 10783" d="M704.842,89.777l4.244,3.807,10.854-15.415" transform="translate(-703.006 -78.169)" fill="none" stroke="#e06c6c" stroke-linecap="round" stroke-width="3"/>
        </g>
      </g>
      <g id="Group_6735" data-name="Group 6735" transform="translate(16.894 114.724)">
        <rect id="Rectangle_4454" data-name="Rectangle 4454" width="55.11" height="0.827" transform="translate(21.702 9.286)" fill="#c0cfe7"/>
        <rect id="Rectangle_4455" data-name="Rectangle 4455" width="55.11" height="0.827" transform="translate(21.702 13.115)" fill="#c0cfe7"/>
        <rect id="Rectangle_4456" data-name="Rectangle 4456" width="55.11" height="0.827" transform="translate(21.702 16.943)" fill="#c0cfe7"/>
        <g id="Group_6732" data-name="Group 6732" transform="translate(21.588 3.726)">
          <rect id="Rectangle_4457" data-name="Rectangle 4457" width="31.242" height="2.737" fill="#6e7a99"/>
          <rect id="Rectangle_4458" data-name="Rectangle 4458" width="14.291" height="2.737" transform="translate(33.902)" fill="#6e7a99"/>
        </g>
        <g id="Group_6734" data-name="Group 6734">
          <g id="Group_6733" data-name="Group 6733" transform="translate(0 3.783)">
            <rect id="Rectangle_4459" data-name="Rectangle 4459" width="13.987" height="13.987" fill="none" stroke="#b5c7e2" stroke-width="2"/>
          </g>
          <path id="Path_10784" data-name="Path 10784" d="M704.842,182.468l4.244,3.807,10.854-15.415" transform="translate(-703.006 -170.861)" fill="none" stroke="#e06c6c" stroke-linecap="round" stroke-width="3"/>
        </g>
      </g>
      <g id="Group_6739" data-name="Group 6739" transform="translate(16.894 138.44)">
        <rect id="Rectangle_4460" data-name="Rectangle 4460" width="55.11" height="0.827" transform="translate(21.702 9.286)" fill="#c0cfe7"/>
        <rect id="Rectangle_4461" data-name="Rectangle 4461" width="55.11" height="0.827" transform="translate(21.702 13.115)" fill="#c0cfe7"/>
        <rect id="Rectangle_4462" data-name="Rectangle 4462" width="55.11" height="0.827" transform="translate(21.702 16.943)" fill="#c0cfe7"/>
        <g id="Group_6736" data-name="Group 6736" transform="translate(21.588 3.726)">
          <rect id="Rectangle_4463" data-name="Rectangle 4463" width="16.571" height="2.736" fill="#6e7a99"/>
        </g>
        <g id="Group_6738" data-name="Group 6738" transform="translate(0 0)">
          <g id="Group_6737" data-name="Group 6737" transform="translate(0 3.783)">
            <rect id="Rectangle_4464" data-name="Rectangle 4464" width="13.987" height="13.987" fill="none" stroke="#b5c7e2" stroke-width="2"/>
          </g>
          <path id="Path_10785" data-name="Path 10785" d="M704.842,228.759l4.244,3.807,10.854-15.415" transform="translate(-703.006 -217.151)" fill="none" stroke="#e06c6c" stroke-linecap="round" stroke-width="3"/>
        </g>
      </g>
      <g id="Group_6742" data-name="Group 6742" transform="translate(16.894 43.517)">
        <g id="Group_6741" data-name="Group 6741" transform="translate(0 3.783)">
          <rect id="Rectangle_4465" data-name="Rectangle 4465" width="13.987" height="13.987" fill="none" stroke="#b5c7e2" stroke-width="2"/>
          <rect id="Rectangle_4466" data-name="Rectangle 4466" width="55.11" height="0.827" transform="translate(21.702 5.56)" fill="#c0cfe7"/>
          <rect id="Rectangle_4467" data-name="Rectangle 4467" width="55.11" height="0.827" transform="translate(21.702 9.389)" fill="#c0cfe7"/>
          <rect id="Rectangle_4468" data-name="Rectangle 4468" width="55.11" height="0.827" transform="translate(21.702 13.217)" fill="#c0cfe7"/>
          <g id="Group_6740" data-name="Group 6740" transform="translate(21.588)">
            <rect id="Rectangle_4469" data-name="Rectangle 4469" width="20.372" height="2.737" fill="#6e7a99"/>
            <rect id="Rectangle_4470" data-name="Rectangle 4470" width="25.085" height="2.737" transform="translate(23.108)" fill="#6e7a99"/>
          </g>
        </g>
        <path id="Path_10786" data-name="Path 10786" d="M704.842,43.486l4.244,3.807,10.854-15.415" transform="translate(-703.006 -31.878)" fill="none" stroke="#e06c6c" stroke-linecap="round" stroke-width="3"/>
      </g>
      <g id="Group_6747" data-name="Group 6747" transform="translate(16.894 91.007)">
        <g id="Group_6744" data-name="Group 6744" transform="translate(21.588 3.726)">
          <rect id="Rectangle_4471" data-name="Rectangle 4471" width="55.11" height="0.827" transform="translate(0.114 5.56)" fill="#c0cfe7"/>
          <rect id="Rectangle_4472" data-name="Rectangle 4472" width="55.11" height="0.827" transform="translate(0.114 9.389)" fill="#c0cfe7"/>
          <rect id="Rectangle_4473" data-name="Rectangle 4473" width="55.11" height="0.827" transform="translate(0.114 13.217)" fill="#c0cfe7"/>
          <g id="Group_6743" data-name="Group 6743">
            <rect id="Rectangle_4474" data-name="Rectangle 4474" width="9.806" height="2.737" fill="#6e7a99"/>
            <rect id="Rectangle_4475" data-name="Rectangle 4475" width="22.728" height="2.737" transform="translate(13.074)" fill="#6e7a99"/>
          </g>
        </g>
        <g id="Group_6746" data-name="Group 6746">
          <g id="Group_6745" data-name="Group 6745" transform="translate(0 3.783)">
            <rect id="Rectangle_4476" data-name="Rectangle 4476" width="13.987" height="13.987" fill="none" stroke="#b5c7e2" stroke-width="2"/>
          </g>
          <path id="Path_10787" data-name="Path 10787" d="M704.842,136.178l4.244,3.807,10.854-15.415" transform="translate(-703.006 -124.57)" fill="none" stroke="#e06c6c" stroke-linecap="round" stroke-width="3"/>
        </g>
      </g>
    </g>
    <g id="Group_6752" data-name="Group 6752" transform="translate(772.201 -20.532)">
      <g id="Group_6749" data-name="Group 6749" transform="translate(4.632 0.461)">
        <path id="Path_10788" data-name="Path 10788" d="M933.374,307.886s-5.929,2.965-6.157,3.934,11.06.229,11.516-.114-.57-4.96-.57-4.96Z" transform="translate(-903.101 -155.391)" fill="#4e5d83"/>
        <path id="Path_10789" data-name="Path 10789" d="M990.988,307.8s5.974,2.872,6.218,3.837-11.055.4-11.517.065.493-4.968.493-4.968Z" transform="translate(-931.556 -155.385)" fill="#4e5d83"/>
        <path id="Path_10790" data-name="Path 10790" d="M908.485,78.41a8.641,8.641,0,0,0-1.539,2.851,42.3,42.3,0,0,1-7.753,12.713c-3.973,4.261-7.3,4.675-12.087,3.193a57.4,57.4,0,0,0-6.955-1.824l1.368,6.955s8.932,8.4,17.066,3.915c8.644-4.766,13.15-17.787,13.15-17.787Z" transform="translate(-880.151 -44.041)" fill="#96afd6"/>
        <path id="Path_10791" data-name="Path 10791" d="M935.566,161.7l1.482,75.14h5.473l5.929-68.869,13.113,68.983,5.359-.228-5.131-76.014Z" transform="translate(-907.174 -84.178)" fill="#2f406e"/>
        <path id="Path_10792" data-name="Path 10792" d="M953.572,70.628s7.278,1.35,9.787,3.4-.038,15.811-.038,15.811H938.692s-.475-13.036-.038-14.785a4.933,4.933,0,0,1,2.508-3.535,18.622,18.622,0,0,1,5.853-1.35C948.612,70.115,953.572,70.628,953.572,70.628Z" transform="translate(-908.59 -40.022)" fill="#e7f3f7"/>
        <path id="Path_10793" data-name="Path 10793" d="M959.209,48.848l.076,12.086-5.777,4.409-2.66-3.877.38-7.3Z" transform="translate(-914.627 -29.625)" fill="#fabba0"/>
        <path id="Path_10794" data-name="Path 10794" d="M951.395,30.856a6.968,6.968,0,0,0,2.7-3.8c.8-2.813,1.675-8.534-.836-11.479-3.078-3.61-12.5-5.435-15.83-3.4a4.229,4.229,0,0,0,1.159,7.354c3.934,1.768,10.756,1.425,10.756,1.768S949.875,30.59,951.395,30.856Z" transform="translate(-907.269 -11.328)" fill="#2f406e"/>
        <path id="Path_10795" data-name="Path 10795" d="M939.417,26.611s-1.634,13.34.722,16.837,6.689,1.634,9.578-.19,3.551-2.979,3.725-4.371a10.983,10.983,0,0,0-.228-2.964,1.96,1.96,0,0,0,1.748-2.661c-.55-1.956-3.268-.38-3.268-.38s1.444-3.953.076-5.321S939.417,26.611,939.417,26.611Z" transform="translate(-908.783 -18.752)" fill="#fbc9b3"/>
        <path id="Path_10796" data-name="Path 10796" d="M953.557,37.671,935.7,37.639c-.176,0-.262.2-.287.343a1.84,1.84,0,0,0-.014.349c0,.123.008.245.017.368s.024.242.043.362a3.122,3.122,0,0,0,.077.35,2.376,2.376,0,0,0,.121.333,1.92,1.92,0,0,0,.174.308,1.8,1.8,0,0,0,.236.277,1.951,1.951,0,0,0,.307.24,2.406,2.406,0,0,0,.388.2,3.186,3.186,0,0,0,.479.147,4.573,4.573,0,0,0,.578.092c.214.021.43.03.645.03,2.774,0,3.056-1.447,3.066-2.835h.48c.01,1.387.293,2.834,3.067,2.834s3.055-1.439,3.066-2.822l5.41.01a.276.276,0,0,0,0-.551Zm-8.477,2.813c-2.235,0-2.5-.944-2.516-2.2H947.6C947.578,39.54,947.315,40.484,945.08,40.484Zm-6.613,0c-2.235,0-2.5-.944-2.516-2.2h5.031C940.964,39.54,940.7,40.484,938.467,40.484Z" transform="translate(-907.093 -24.159)" fill="#2f406e"/>
        <path id="Path_10797" data-name="Path 10797" d="M952.06,75.48s-1.49,1.047-1.41,1.812a10.268,10.268,0,0,0,.5,1.913l-3.847,12.182,2.054,6.4,4.309-4.551L952.3,79.467a6.1,6.1,0,0,0,1.249-2.336C953.631,76.2,952.06,75.48,952.06,75.48Z" transform="translate(-912.9 -42.612)" fill="#e06c6c"/>
        <path id="Path_10798" data-name="Path 10798" d="M956.708,71.1l5.435-4.675,2.47,2.432L959.957,75.4Z" transform="translate(-917.484 -38.199)" fill="#d3eaf0"/>
        <path id="Path_10799" data-name="Path 10799" d="M940.183,71.289l4.181,12.979,9.5-12.618s7.145,1.786,8.97,3.724c1.14,1.211-2.015,24.249-1.9,29.494.082,3.772.76,14.67.76,14.67l-26.909.152s-1.216-42.359-.931-43.5S937.561,71.688,940.183,71.289Z" transform="translate(-906.319 -40.569)" fill="#a0b7da"/>
        <path id="Path_10800" data-name="Path 10800" d="M980.712,75.628a17.158,17.158,0,0,1,4.1,2.357c3.913,2.846,8.941,8.637,10.984,13.721,2.684,6.679.712,12.884-3.421,18.4s-7.981,7.6-7.981,7.6l-.764-7.587s6.693-6.323,6.161-12.48c-.459-5.3-12.391-11.4-12.391-11.4Z" transform="translate(-927.578 -42.684)" fill="#a0b7da"/>
        <path id="Path_10801" data-name="Path 10801" d="M960.039,72.008c-.488-.224-.793-.359-.793-.359l-9.5,12.619-4.181-12.979a4.6,4.6,0,0,0-.72.181l4.444,15.155Z" transform="translate(-911.699 -40.569)" fill="#b5c7e2"/>
        <path id="Path_10802" data-name="Path 10802" d="M951.683,71.722l-2.889-4.1-2.157,2.052,1.938,6.129Z" transform="translate(-912.574 -38.778)" fill="#d3eaf0"/>
        <path id="Path_10803" data-name="Path 10803" d="M985.089,142.53a2,2,0,0,0-.946-1.39,1.807,1.807,0,0,0-1.4.162,6.573,6.573,0,0,0-2.636,2.161,2.649,2.649,0,0,0-.591,1.563,3.291,3.291,0,0,0,1.129,2.009,12.2,12.2,0,0,0,3.745,3.008,1.107,1.107,0,0,0,.525.127,1.039,1.039,0,0,0,.758-.657C986.6,147.627,985.644,144.393,985.089,142.53Z" transform="translate(-928.606 -74.591)" fill="#fabba0"/>
        <path id="Path_10804" data-name="Path 10804" d="M941.2,49.759h7.981s-.684,2.736-4.257,2.889S941.2,49.759,941.2,49.759Z" transform="translate(-909.924 -30.069)" fill="#fff"/>
      </g>
      <g id="Group_6751" data-name="Group 6751">
        <g id="Group_6750" data-name="Group 6750" transform="translate(0.003)">
          <path id="Path_10805" data-name="Path 10805" d="M886.94,30.17l-7.88.635-7.88.635,5.758-20.6a.538.538,0,0,1,1.018-.082Z" transform="translate(-871.147 -10.428)" fill="#fcd7c7"/>
          <rect id="Rectangle_4477" data-name="Rectangle 4477" width="15.811" height="137.208" transform="translate(0 20.606) rotate(-4.609)" fill="#e06c6c"/>
          <rect id="Rectangle_4478" data-name="Rectangle 4478" width="15.811" height="4.41" transform="matrix(0.997, -0.08, 0.08, 0.997, 10.134, 146.3)" fill="#d3eaf0"/>
          <rect id="Rectangle_4479" data-name="Rectangle 4479" width="15.811" height="4.41" transform="matrix(0.997, -0.08, 0.08, 0.997, 9.42, 137.447)" fill="#d3eaf0"/>
          <path id="Path_10806" data-name="Path 10806" d="M884.481,16.545,881.8,10.756a.538.538,0,0,0-1.018.082l-1.717,6.144Z" transform="translate(-874.994 -10.428)" fill="#e06c6c"/>
          <path id="Path_10807" data-name="Path 10807" d="M892.709,29.777l-8.8-19.02a.543.543,0,0,0-.522-.325l6.028,19.611.15-.012L900.589,166.8l3.3-.265L892.859,29.766Z" transform="translate(-877.099 -10.43)" fill="#dcdfe6" style="mix-blend-mode: multiply;isolation: isolate"/>
        </g>
        <path id="Path_10808" data-name="Path 10808" d="M871.207,120.007a2.29,2.29,0,0,1,.833-2.514,6.577,6.577,0,0,1,3.4-.28,2.648,2.648,0,0,1,1.511.713,3.286,3.286,0,0,1,.586,2.229,12.207,12.207,0,0,1-.6,4.766,1.105,1.105,0,0,1-.288.455.987.987,0,0,1-1,.055A8.254,8.254,0,0,1,871.207,120.007Z" transform="translate(-871.111 -62.451)" fill="#fabba0"/>
      </g>
    </g>
  </g>
</svg>
