<?xml version="1.0"?>
<svg xmlns:inkscape="http://www.inkscape.org/namespaces/inkscape" xmlns:sodipodi="http://sodipodi.sourceforge.net/DTD/sodipodi-0.dtd" xmlns="http://www.w3.org/2000/svg" xmlns:svg="http://www.w3.org/2000/svg" version="1.1" id="svg1" width="6666.6665" height="6666.6665" viewBox="0 0 6666.6665 6666.6665" sodipodi:docname="vecteezy_cruise-ship-anchor-waves-nautical-illustration-logo_12080821.eps" style="background-color:transparent;">
  <defs id="defs1"/>
  <sodipodi:namedview id="namedview1" pagecolor="#ffffff" bordercolor="#000000" borderopacity="0.25" inkscape:showpageshadow="2" inkscape:pageopacity="0.0" inkscape:pagecheckerboard="0" inkscape:deskcolor="#d1d1d1">
    <inkscape:page x="0" y="0" inkscape:label="1" id="page1" width="6666.6665" height="6666.6665" margin="0" bleed="0"/>
  </sodipodi:namedview>
  <g id="g1" inkscape:groupmode="layer" inkscape:label="1">
    <g id="group-R5">
      <path id="path2" d="M 0,0 H 50000 V 50000 H 0 V 0" style="fill: rgb(255, 255, 255); fill-opacity: 1; fill-rule: nonzero; opacity: 1;" transform="matrix(0.13333333,0,0,-0.13333333,0,6666.6667)" data-index="0"/>
      <path id="path3" d="m 22521.6,39305.6 c -1667.5,0 -3019.2,-1351.8 -3019.2,-3019.2 0,-1101.4 589.8,-2064.8 1470.7,-2592.2 v -43.6 c -18.1,-273.9 -36.1,-547.8 -54.1,-821.6 h -5445.8 c 604.2,-960.2 1208.6,-1920.3 1812.9,-2880.3 1167.1,-19.5 2334.4,-39.1 3501.6,-58.5 -78,-2570.9 -156.1,-5141.7 -234,-7712.5 -5.7,-199.4 -17.5,-400.8 -37.2,-600.1 l 431.5,1313.9 1832.2,1441.6 -285.2,1889.5 752.1,41.4 v 0.1 l 1142.6,80.5 -107.7,3545.6 c 4066.4,67.9 3156.9,-489.4 5314.6,2938.8 h -5445.8 c -18.1,273.8 -36.1,547.7 -54.2,821.6 v 43.6 c 880.9,527.4 1470.7,1490.8 1470.7,2592.2 0,1667.4 -1351.7,3019.2 -3019.1,3019.2 -4.5,0 -8.9,-0.1 -13.3,-0.1 -4.5,0 -8.9,0.1 -13.3,0.1 z M 16788.5,20412.8 c -48.6,53.7 -97.3,108.4 -145.9,163.9 514.2,-7.2 1028.3,-14.6 1542.5,-21.9 -1825.2,1847.4 -2658.8,3808.5 -2997.3,5826.4 -1871.3,-1959.3 -2816.9,-4478.8 -2836.4,-7558.9 492.3,346 984.5,692 1476.7,1038 367,-1024.1 996.5,-1983 1870.1,-2828.5 l 53.6,36.8 -127.8,2377.9 643.4,534 c -513.7,565.6 -812.1,1063.6 -723.4,1352.9 155.7,-360.4 466.5,-783.3 890.9,-1214 z m 6688,12064 v -310.6 H 28187 l 201,306.1 z M 16695.3,21575.4 h -246.8 c -636.2,865.1 -1200.4,1914.2 -1617.3,3339.9 -967.4,-1340.4 -1487.7,-2853.9 -1699.6,-4486.7 81.1,1691.2 661.9,3295 1717.9,4815.7 319.4,-1199.3 917.1,-2420.9 1845.8,-3668.9 z m 4897.9,10901.4 v -310.6 h -4710.5 l -201.1,306.1 z m 941.7,2921.5 c -496.5,-5.4 -901.6,390.7 -901.6,888.1 0,490.6 397.7,888.3 888.3,888.3 4.4,0 8.8,-0.1 13.3,-0.1 4.4,0 8.8,0.1 13.2,0.1 490.6,0 888.4,-397.7 888.4,-888.3 0,-497.6 -405.1,-893.5 -901.6,-888.1" style="fill: rgb(27, 43, 61); fill-opacity: 1; fill-rule: evenodd; opacity: 1;" transform="matrix(0.13333333,0,0,-0.13333333,0,6666.6667)" data-index="1"/>
      <path id="path4" d="m 23467.9,24382.5 511.5,341.5 639.4,-22.9 -0.1,-0.3 0.1,0.3 c 0,0 -300,342.3 -900,1026.7 0,0 -162.4,-8.1 -487.4,-24.4 z m -9624.5,-10245.2 75.9,883.2 1454,853.7 255.9,797.9 816.3,560.6 -121.8,2266.2 1023.4,840.7 h 597 l 1403.3,-1148 1658.1,1273 c 479.2,1405.2 718.8,2107.8 718.8,2107.8 620.8,547 1221.9,1039.4 1803.3,1477.3 h -0.1 l 597.1,435.6 485.4,212 c 2139.5,826.7 4900.3,537.1 6179.1,-723.7 92.3,-96.3 79.7,-149.8 5.8,-281.2 -1518.6,1315.8 -4838.3,1426.6 -6473.3,447.7 0,0 -755.9,-594.7 -2267.7,-1784.1 0,0 -6.2,-89.4 -18.4,-268 0,0 849.6,530.7 2548.8,1592.1 L 27141,20303.9 c 1481.4,672.7 2922.9,1254.3 4324.3,1744.5 v 0.1 h 0.2 -0.2 c -99.4,472.3 -379.6,925.2 -840.5,1358.5 -1376.9,964.5 -4432.2,1104.3 -6040.5,273.1 l 2058.2,-3605.4 c -8347.2,-3882.6 -12520.8,-5823.8 -12520.8,-5823.8 16.3,398 24.4,597 24.4,597 966.6,536 1449.8,804.1 1449.8,804.1 203.1,568.5 304.6,852.9 304.6,852.9 592.9,398 889.4,596.9 889.4,596.9 l 1520.4,1249.8 806.7,663.1 c 76.2,58.6 152.5,117.1 228.7,175.6 l 1.7,1.3 c 506.7,498.3 780,767 1286.8,1265.3 l 763.4,2325.3 1746.3,1373.9 -271.9,1800.7 1004.8,55.3 914.5,-843.3 c 1784.4,547.4 4334.8,717.6 6286.5,-955.1 197.1,-184.1 126.5,-587.6 14.9,-771.8 338.2,-365.4 557.8,-730.7 729.3,-1258.4 v -0.2 c 3059.5,1135.3 5001.8,1256.9 5826.6,364.7 -1917.6,-2069.2 -3543.4,-5352.6 -3736,-8353.2 -142.1,243.2 -324,479.4 -535.4,699.5 470.5,3073.4 1637.8,5648.2 3165.5,7275.7 -1977.8,821.8 -5432.2,-914.2 -9186.5,-2509.8 C 18409.3,15927.9 14082,13769.3 14082,13769.3 c -289.8,-493.2 -17.8,-975.4 852.9,-852.9 179.6,22.9 365.4,43.5 557,60.5 l -14.3,-6.7 c -201.2,-78.2 -402,-131.4 -602.5,-159.9 -150.9,-23.3 -303.3,-31.8 -461.6,-21.7 -376.7,18.1 -752.1,124.4 -1126.1,319 -72.5,213.6 -103.2,468.9 -91.6,765.5 z m 5273.6,4877.4 -273,230.4 c 0,0 -328.9,-5 -986.6,-15 0,0 -376.8,-309.5 -1130.3,-928.6 l 43.2,-824.4 1434.3,1079.5 z m -622.5,525.3 -547.1,461.6 c 0,0 -158.4,-8.1 -475.2,-24.4 0,0 -264,-259.9 -791.9,-779.7 l 26.7,-510.4 c 0,0 326.4,291.6 979.4,874.7 0,0 269.4,-7.3 808.1,-21.8" style="fill: rgb(27, 43, 61); fill-opacity: 1; fill-rule: evenodd; opacity: 1;" transform="matrix(0.13333333,0,0,-0.13333333,0,6666.6667)" data-index="2"/>
      <path id="path5" d="m 18249.8,14622.1 c 65.3,40.9 167.8,-5.3 228.7,-102.9 61,-97.7 57.5,-209.9 -7.9,-250.8 -65.3,-40.7 -167.7,5.4 -228.7,103 -60.9,97.7 -57.5,210 7.9,250.7 z m 12144.4,5014.8 c 319,98.7 697.1,-207.6 844.6,-684.3 147.6,-476.6 8.6,-943 -310.2,-1041.7 -318.9,-98.7 -697.1,207.7 -844.6,684.3 -147.5,476.6 -8.6,943 310.2,1041.7 z M 20829,15671.4 c 71.5,28.7 164.2,-34.7 207.2,-141.5 42.9,-106.9 19.6,-216.7 -51.8,-245.5 -71.5,-28.7 -164.3,34.7 -207.1,141.4 -42.9,107 -19.9,216.9 51.7,245.6 z m 5868.3,2446.6 c 104.3,56.8 257.8,-23.4 342.9,-179.4 84.9,-155.9 69.3,-328.4 -35.1,-385.3 -104.3,-56.8 -257.8,23.4 -342.8,179.3 -85,156 -69.3,328.5 35,385.4 z m -839.3,-347 c 98.8,42.8 230.8,-42.2 294.9,-189.8 64,-147.6 35.8,-302.1 -63.1,-345 -98.7,-42.8 -230.7,42.2 -294.8,189.8 -64,147.8 -35.8,302.2 63,345 z m -878,-349.3 c 90.1,58.8 234.5,-2.6 322.6,-137.3 88,-134.8 86.3,-291.8 -3.8,-350.7 -90.2,-58.8 -234.6,2.7 -322.7,137.4 -88,134.7 -86.3,291.7 3.9,350.6 z m -828.6,-371.6 c 90.2,58.8 234.6,-2.6 322.7,-137.4 88,-134.7 86.3,-291.7 -3.9,-350.6 -90.1,-58.9 -234.6,2.6 -322.6,137.3 -88,134.8 -86.3,291.8 3.8,350.7 z m -852.8,-322.9 c 90.1,58.8 234.5,-2.6 322.6,-137.4 88,-134.7 86.3,-291.7 -3.8,-350.5 -90.2,-59 -234.6,2.5 -322.7,137.2 -88,134.8 -86.3,291.8 3.9,350.7 z m -837,-353.2 c 86,46.2 211.6,-20.5 280.7,-148.8 69,-128.5 55.3,-270.1 -30.6,-316.3 -85.9,-46.2 -211.5,20.5 -280.6,148.9 -69.1,128.4 -55.5,270 30.5,316.2 z m -798,-373.7 c 71.4,28.7 164.2,-34.6 207.1,-141.4 42.9,-106.9 19.8,-216.8 -51.7,-245.6 -71.6,-28.6 -164.3,34.7 -207.2,141.5 -42.9,107 -19.7,216.8 51.8,245.5 z m -1715.6,-713 c 63.5,43.6 167.8,1.9 233,-93 65.2,-94.9 66.5,-207.2 2.9,-250.8 -63.5,-43.6 -167.8,-1.9 -233,93 -65.1,94.9 -66.4,207.3 -2.9,250.8 z m -852.9,-335 c 63.6,43.5 167.9,2 233.1,-93 65.1,-95 66.4,-207.2 2.8,-250.8 -63.4,-43.6 -167.8,-2 -232.9,93 -65.2,94.9 -66.5,207.2 -3,250.8" style="fill:#1b2b3d;fill-opacity:1;fill-rule:evenodd;stroke:none" transform="matrix(0.13333333,0,0,-0.13333333,0,6666.6667)" data-index="3"/>
      <path id="path6" d="m 24000.1,21318.9 c -107.5,5.7 -201.5,-120.1 -209.9,-280.8 -8.4,-160.8 71.9,-295.7 179.5,-301.3 107.5,-5.5 201.5,120.2 209.9,280.9 8.4,160.8 -72,295.6 -179.5,301.2 z m 268.1,-1041.7 c -107.6,5.6 -201.6,-120.2 -210,-280.9 -8.4,-160.7 72,-295.5 179.5,-301.2 107.6,-5.6 201.5,120.2 210,280.9 8.4,160.8 -72,295.5 -179.5,301.2 z m 551.3,356.3 c -107.5,5.6 -201.5,-120.2 -209.9,-280.9 -8.4,-160.7 72,-295.6 179.5,-301.2 107.5,-5.7 201.5,120.2 209.9,280.9 8.5,160.7 -71.9,295.6 -179.5,301.2 z m -268,1041.7 c -107.6,5.6 -201.6,-120.2 -210,-280.9 -8.3,-160.7 72,-295.5 179.5,-301.2 107.6,-5.6 201.6,120.2 209.9,280.9 8.5,160.8 -71.9,295.6 -179.4,301.2" style="fill:#1b2b3d;fill-opacity:1;fill-rule:evenodd;stroke:none" transform="matrix(0.13333333,0,0,-0.13333333,0,6666.6667)" data-index="4"/>
      <path id="path7" d="m 16388.5,15843.7 c 4885.8,2725 7328.6,4087.6 7328.6,4087.6 l 91.3,-450.8 c -4942.6,-2546.4 -7413.8,-3819.7 -7413.8,-3819.7 -4.1,121.8 -6.1,182.9 -6.1,182.9" style="fill: rgb(27, 43, 61); fill-opacity: 1; fill-rule: evenodd; opacity: 1;" transform="matrix(0.13333333,0,0,-0.13333333,0,6666.6667)" data-index="5"/>
      <path id="path8" d="m 16388.5,16294.4 7078.8,4623.8 148.2,-482.2 -7220.9,-4324.3 c -4.1,121.8 -6.1,182.7 -6.1,182.7" style="fill:#1b2b3d;fill-opacity:1;fill-rule:evenodd;stroke:none" transform="matrix(0.13333333,0,0,-0.13333333,0,6666.6667)" data-index="6"/>
      <path id="path9" d="m 25674.9,23438.5 c 966.5,-1567.6 1449.8,-2351.4 1449.8,-2351.4 -1250.8,1657 -1876.3,2485.5 -1876.3,2485.5 1469.6,463.5 3236.2,412.8 5226.9,-335 -2083.1,448.6 -3707.6,454.7 -4800.4,200.9" style="fill:#1b2b3d;fill-opacity:1;fill-rule:evenodd;stroke:none" transform="matrix(0.13333333,0,0,-0.13333333,0,6666.6667)" data-index="7"/>
      <path id="path10" d="m 19347.4,19191.6 1836.1,1164.5 784,2428.7 -238.6,-208.4 -723.4,-2111.8 -1658.1,-1273" style="fill:none;fill-opacity:1;fill-rule:evenodd;stroke:none" transform="matrix(0.13333333,0,0,-0.13333333,0,6666.6667)" data-index="8"/>
      <path id="path11" d="m 16391.8,16019.6 7267.8,4232.3 -44.1,184.1 -7221,-4324.3 -2.7,-92.1" style="fill:none;fill-opacity:1;fill-rule:evenodd;stroke:none" transform="matrix(0.13333333,0,0,-0.13333333,0,6666.6667)" data-index="9"/>
      <path id="path12" d="m 36542.8,22170.1 c -1968.7,-1291.8 -3245.7,-3527.2 -3831.6,-6705.9 242.7,-170.8 467.4,-363.3 666,-569.8 470.5,3073.3 1637.8,5648.2 3165.6,7275.7" style="fill:#ccccc9;fill-opacity:1;fill-rule:evenodd;stroke:none" transform="matrix(0.13333333,0,0,-0.13333333,0,6666.6667)" data-index="10"/>
      <path id="path13" d="m 30624.7,23407 c 304.5,-469 427,-867.3 367.3,-1194.9 0,0 -1283.6,-636.1 -3851.1,-1908.3 l 0.4,0.1 c 1481.3,672.8 2922.7,1254.3 4324,1744.5 v 0.1 h 0.2 -0.2 c -99.4,472.3 -379.7,925.1 -840.6,1358.5" style="fill:#ccccc9;fill-opacity:1;fill-rule:evenodd;stroke:none" transform="matrix(0.13333333,0,0,-0.13333333,0,6666.6667)" data-index="11"/>
      <path id="path14" d="m 33171.8,11486.6 c -622.8,-529.4 -1284.7,-681.8 -1985.9,-456.9 718.3,-394.2 1351.9,-420.5 1900.6,-79.2 578.3,-339.3 1187.4,-341.4 1827.6,-6.1 -950.2,-75.5 -1531,105.2 -1742.3,542.2 z m -4000.3,655.4 c 418.3,-294.2 802.1,-73.8 731,578.8 -234.2,-583.7 -516.5,-638.5 -846.9,-164.6 -33.6,-536 -740.2,-903.5 -932,-60.9 -767,-155.7 -1182.2,189.4 -706.6,871.2 -859.4,-539 -112.1,-1546.2 542.2,-1120.9 181.4,-726.7 1045.4,-715.6 1212.3,-103.6 z m 4252.1,-243.8 c 919.8,-612.4 2784.9,-1431.9 3455.6,-132.4 -651,-606.5 -1581.1,-664.4 -2351.4,-127.9 -787.5,542.9 -1430.2,918.6 -1730.1,596.9 -312.8,-351.6 -483.9,-677.6 -979.3,-616.7 -19.9,500 -225.7,958.8 -617.1,1376.3 306.3,-739.8 341.4,-1141.8 105.3,-1205.8 -274.3,19.5 -327.3,959.6 -797,1361.1 739.7,-447.6 1464.6,70.2 1516.8,840.7 434.9,-80.9 875.5,-385.5 1322,-913.8 -490.9,969.5 -1161.8,1537.6 -2012.8,1704.7 49.7,99.6 91.3,208.2 124.9,325.8 722.6,138.4 1702.5,-519.6 2387.9,-1532.1 339.8,-454.1 683.5,-845.5 1060,-1142.3 714.8,-534.3 1455.9,-457.2 2223.6,231.6 -365.1,-174.7 -707.3,-280.3 -1026.4,-316.9 -618.9,-122.9 -1240.2,212.2 -1864.2,1005.2 -389.3,510.7 -688.9,1258 -1547.4,1848.9 -1085.8,711.8 -2384.4,838.7 -3055.1,234.5 -232.7,-242 -222.6,-667.3 12.2,-810.2 371.3,-143.8 615.9,31.9 542.2,316.7 -183.2,-333.7 -645.3,-129.5 -426.4,219.4 283.4,366.9 604.2,442.1 962.4,225.4 272,-198.4 298.4,-484.8 79.2,-859 149.3,-29 278.8,-86.8 388.4,-173.6 367.5,-288.6 335,-710.1 -6.1,-871.2 -362.3,-147.7 -685.2,-70.5 -968.6,231.5 -54.7,-378.6 -211.1,-565.4 -469.2,-560.4 -348.1,91.1 -546.1,406.9 -593.9,947.3 -131,-400 -353.4,-585.8 -667.1,-557.4 -308.1,43.2 -514.6,309.2 -596.9,734 -205.8,-292.1 -498.2,-419 -877.3,-380.7 -383.9,71.6 -479.8,431 -260.5,804.2 267.5,-222.7 494.4,-238.9 685.4,-58 204.8,201.5 184.5,362.9 -15.2,511.7 -72.5,-337.9 -201.5,-440.4 -386.9,-307.6 -226.6,167.9 -298.7,336.5 -198,432.5 279.5,247.9 599.2,301.6 959.5,161.5 -254.5,-808.7 525.1,-1362.5 944.2,-773.8 190.2,280.6 20.6,618.7 -362.4,557.5 264,-86.8 303.5,-405.6 36.5,-508.7 -255.2,-49.1 -393.3,332.7 -213.2,587.9 647,715.9 1508.9,1018.9 2585.9,909.1 1282.8,-117.8 2602.3,-1059 3169.3,-2107.8 214.4,-374 430.1,-648.1 613.7,-834.6 767.8,-830.4 1440,-929.9 2016.5,-298.5 -913.2,-215.7 -1632.1,4.6 -2266.3,944.1 -444.3,715.6 -991.5,1283.2 -1641.7,1702.8 -1600.2,1099.8 -3412.6,1195.3 -4559.9,85.2 -880.6,311 -1641.6,14.5 -1510.8,-615.3 -349.4,-324.6 -475.4,-692.1 -286.3,-1029.5 306.8,-487.3 779.9,-590.8 1419.3,-310.7 258.7,-570.4 702.4,-693.3 1331.1,-368.6 179.7,-567 825.3,-691.7 1353.1,-295.2 274.2,-459.2 335.6,-1020.6 56.2,-1008 -478.1,21.5 -565.6,-130.8 -848.3,-412.7 -646,-586.2 -1935.1,-330.9 -3327.8,738.6 369.8,-581 1105.8,-1163.8 2126.2,-1346.3 755.4,-126.8 1183.8,-30.4 1714.8,545.2 207.6,212.6 441.8,147.8 816.4,48.8 748.7,-225.7 1508.1,-570.9 1858,-67 224,331.6 281.2,500.1 597,313.6 z m -7434.3,349.8 c 505.9,-652.3 1139.5,-1086.9 1900.8,-1303.6 -874.3,-8.1 -1552.5,298.5 -2034.7,919.8 -253.3,-261.3 -689.9,-303.9 -1309.8,-127.8 548.7,12.7 1030,183.3 1443.7,511.6" style="fill: rgb(58, 128, 196); fill-opacity: 1; fill-rule: evenodd; stroke: none; opacity: 1;" transform="matrix(0.13333333,0,0,-0.13333333,0,6666.6667)" data-index="12"/>
      <path id="path15" d="m 19844.8,12501.7 c -635.9,84 -574.5,537.5 360.3,1242.9 -782,158.1 -1687,-76.5 -2715,-703.9 -1010.6,-571.2 -1852.3,-839.3 -2525.2,-804.4 1205,-356.2 1610.8,-25.4 2592.2,413.5 497.1,226.6 988.7,386.8 1474.9,480.3 -357.4,-711.3 -141.4,-1480.4 1402.2,-1033.4 605.2,166.6 1106.1,404.9 1502.8,715 904.6,-715.6 1861.8,-723.1 2871.5,-22.3 356.7,-367 857.7,-495.5 1502.7,-385.5 -1371.9,266.7 -1290.1,1098.2 -251.3,1458.2 -451.7,66.9 -897.6,-199.3 -1497.2,-731.9 -667.2,-607.2 -2440,-625.8 -2335.1,195.6 -739.4,-633.6 -1533.7,-908.3 -2382.8,-824.1 z m 4550.1,701.2 c -236.7,14.7 -301.9,180.4 -195.4,497.2 -234,-360.8 -725.6,-586.2 -1474.9,-676 671.9,-166.5 1228.7,-106.9 1670.3,178.8 z m -3164.7,-69.9 c -478.9,-358.4 -981.7,-416.1 -1508.3,-173.1 1404.9,58.9 1053.1,738.3 2022.3,983.2 -361.6,-265.9 -432.3,-571.4 -136.9,-896.7 -148.7,-58.3 -291.2,-42.5 -377.1,86.6 z m -4223.5,455.3 c -1293.5,-466.2 -1991.8,-1016.4 -3050.2,-720.6 701.9,-45.6 1428.2,196.5 2178.8,726.2 823.9,569.1 1356,941.7 2078.2,983.3 -725.7,-360.6 -992,-800.2 -798.9,-1318.5 -126.6,39.5 -262.5,149.5 -407.9,329.6 z m 1486.1,-2106.1 c -709.8,-346 -1419.3,-372.1 -2128.5,-78.2 992.9,-61.1 1674.4,177.3 2044.7,715.1 1025.5,-885.9 2124.2,-863.6 3296.1,67 745.1,-566 1739.4,-627.5 2983.2,-184.3 -935.6,-710.8 -1971,-830.1 -3106.2,-357.6 -1114.4,-821.5 -2144.3,-875.5 -3089.3,-162" style="fill: rgb(58, 128, 196); fill-opacity: 1; fill-rule: evenodd; opacity: 1;" transform="matrix(0.13333333,0,0,-0.13333333,0,6666.6667)" data-index="13"/>
      <path id="path16" d="m 14304.1,14335.7 -0.2,428.7 1404.9,753.9 191.7,986.6 -304.6,-852.9 -1449.8,-804.1 -24.3,-597.1 182.3,84.9" style="fill:none;fill-opacity:1;fill-rule:evenodd;stroke:none" transform="matrix(0.13333333,0,0,-0.13333333,0,6666.6667)" data-index="14"/>
      <path id="path17" d="m 16391.8,15568.8 7460.8,3727.7 -44.1,184 -7414,-3819.7 -2.7,-92" style="fill:none;fill-opacity:1;fill-rule:evenodd;stroke:none" transform="matrix(0.13333333,0,0,-0.13333333,0,6666.6667)" data-index="15"/>
      <path id="path18" d="m 30782.5,21127.3 c -1087.6,-446.6 -2242,-963.8 -3426.2,-1467.1 -8947,-3732.4 -13274.3,-5890.9 -13274.3,-5890.9 -245,-416.9 -88.4,-826.1 492,-868.4 388.2,65.8 783.5,216.2 1186,451.1 -1191.8,-394.3 -1677.4,14.8 -1214.5,359.8 5412.3,2471.9 11555.7,4706.1 16237,7415.5" style="fill: rgb(204, 204, 201); fill-opacity: 1; fill-rule: evenodd; opacity: 1;" transform="matrix(0.13333333,0,0,-0.13333333,0,6666.6667)" data-index="16"/>
      <path id="path19" d="m 31248.8,18918.7 c 34.5,-67 64.3,-139.2 88,-215.9 147.6,-476.7 8.7,-943.1 -310.2,-1041.8 -318.9,-98.7 -697,207.7 -844.6,684.3 -3.4,11.3 -6.8,22.6 -10,33.9 179.8,-348.8 489.1,-551.1 756.6,-468.3 311.3,96.4 451,543.2 320.2,1007.8" style="fill:#ccccc9;fill-opacity:1;fill-rule:evenodd;stroke:none" transform="matrix(0.13333333,0,0,-0.13333333,0,6666.6667)" data-index="17"/>
      <path id="path20" d="m 18509.6,14453.2 c 12.3,-13.4 23.8,-28.5 34.2,-45.1 61,-97.7 57.5,-209.9 -7.9,-250.7 -65.3,-40.8 -167.7,5.3 -228.7,103 -13.5,21.6 -23.8,43.8 -31,65.9 60.5,-65.7 140.2,-91.7 194.4,-57.9 50.9,31.8 64.4,107 39,184.8 z m 2533.4,1057.7 c 23.4,-24.4 43.8,-55.7 58.4,-92.1 42.9,-106.9 19.7,-216.7 -51.8,-245.4 -71.4,-28.7 -164.1,34.6 -207.1,141.4 -2.5,6.4 -4.9,12.7 -6.9,19.1 45.3,-47.3 101.6,-68.4 148.8,-49.5 67.2,27.1 91.7,125.9 58.6,226.5 z m 6018.4,2383.4 c 16,-20.3 30.8,-42.6 44,-66.8 85,-155.9 69.3,-328.4 -35,-385.3 -104.3,-56.8 -257.8,23.5 -342.8,179.4 -8.1,14.7 -15.1,29.5 -21.4,44.3 87.4,-110.7 210.8,-160.7 298.9,-112.6 94.6,51.5 116.2,197.9 56.3,341 z m -903.7,-324.7 c 23.4,-28.4 44.1,-61.9 60.4,-99.5 64.1,-147.7 35.8,-302.1 -62.9,-344.9 -98.8,-42.9 -230.9,42.1 -294.8,189.8 -1.7,3.8 -3.3,7.7 -4.9,11.6 68.7,-83.2 160.8,-122.2 234.3,-90.4 96.3,41.8 125.6,189.3 67.9,333.4 z m -815.9,-360.6 c 9.2,-11.2 17.8,-23.2 26,-35.7 88.1,-134.8 86.4,-291.7 -3.8,-350.7 -90.1,-58.9 -234.6,2.6 -322.6,137.4 -16.1,24.6 -29.1,49.9 -39.2,75.3 88.5,-109.4 214.8,-155 296.6,-101.6 73.6,48.1 88.3,161.8 43,275.3 z m -828.5,-371.6 c 9.1,-11.2 17.8,-23.1 26.1,-35.8 88,-134.6 86.3,-291.7 -3.9,-350.6 -90.1,-58.9 -234.6,2.6 -322.6,137.4 -16.1,24.6 -29.1,49.9 -39.3,75.2 88.6,-109.3 214.9,-154.9 296.7,-101.5 73.7,48.1 88.3,161.8 43,275.3 z m -852.9,-322.8 c 9.1,-11.3 17.9,-23.2 26.1,-35.9 88,-134.7 86.3,-291.7 -3.9,-350.6 -90.1,-58.8 -234.6,2.7 -322.6,137.4 -16,24.6 -29.1,50 -39.3,75.3 88.6,-109.4 214.9,-154.9 296.6,-101.5 73.7,48.1 88.4,161.7 43.1,275.3 z m -897.4,-334.8 c 16.5,-19.5 31.5,-41.5 44.5,-65.7 69,-128.4 55.4,-270 -30.5,-316.2 -86,-46.2 -211.6,20.4 -280.7,148.8 -8,15 -14.9,30.3 -20.7,45.4 70.5,-83.8 166.4,-120.6 236.1,-83.2 75.8,40.9 95.4,156 51.3,270.9 z m -885.3,-340 c 23.3,-24.3 43.7,-55.7 58.3,-92.1 42.9,-106.7 19.7,-216.7 -51.7,-245.4 -71.5,-28.6 -164.3,34.7 -207.2,141.4 -2.5,6.5 -4.8,12.8 -6.9,19.1 45.2,-47.2 101.6,-68.3 148.8,-49.5 67.2,27.1 91.7,125.9 58.7,226.5 z M 20219,15117.5 c 9.7,-10.5 18.8,-21.9 27.3,-34.2 65.1,-95 66.5,-207.3 2.9,-250.8 -63.5,-43.7 -167.9,-2 -233,92.9 -17.1,25 -29.7,51.1 -38.1,76.9 64.4,-70 150.5,-96.7 205.8,-58.8 46.9,32.2 58.5,101.6 35.1,174 z m -852.8,-335.1 c 9.6,-10.5 18.7,-21.8 27.2,-34.1 65.1,-95 66.5,-207.3 2.9,-250.9 -63.5,-43.6 -167.8,-2 -232.9,93 -17.1,24.9 -29.8,51 -38.1,76.9 64.3,-70.2 150.5,-96.8 205.8,-58.8 46.8,32.1 58.4,101.6 35.1,173.9" style="fill:#ccccc9;fill-opacity:1;fill-rule:evenodd;stroke:none" transform="matrix(0.13333333,0,0,-0.13333333,0,6666.6667)" data-index="18"/>
      <path id="path21" d="m 30475.3,23237.6 c -2071.4,329.1 -3577.6,350.1 -4518.8,62.7 0,0 389.4,-737.7 1168.2,-2213.2 0,0 -483.3,783.8 -1449.8,2351.4 1092.8,253.8 2717.3,247.7 4800.4,-200.9" style="fill:#ccccc9;fill-opacity:1;fill-rule:evenodd;stroke:none" transform="matrix(0.13333333,0,0,-0.13333333,0,6666.6667)" data-index="19"/>
      <path id="path22" d="m 31103.9,26606.8 c 991.4,362.5 1652.4,152.7 1983,-629.4 665.6,548.2 1326.6,584.9 1982.9,109.9 -869.3,320.4 -1561.9,74.1 -2077.8,-739.2 -56.7,801 -686.1,1220.5 -1888.1,1258.7" style="fill:#1b2b3d;fill-opacity:1;fill-rule:evenodd;stroke:none" transform="matrix(0.13333333,0,0,-0.13333333,0,6666.6667)" data-index="20"/>
      <path id="path23" d="m 20211.2,23181.3 c -809.8,296.1 -1349.6,124.7 -1619.7,-514 -543.7,447.8 -1083.5,477.7 -1619.6,89.8 710,261.7 1275.7,60.4 1697.2,-603.9 46.3,654.3 560.3,997 1542.1,1028.1" style="fill:#1b2b3d;fill-opacity:1;fill-rule:evenodd;stroke:none" transform="matrix(0.13333333,0,0,-0.13333333,0,6666.6667)" data-index="21"/>
      <path id="path24" d="m 26623.7,26949.4 c 46.4,654.3 560.4,997 1542.1,1028.1 -809.7,296.1 -1349.6,124.7 -1619.6,-514 -543.6,447.7 -1083.6,477.6 -1619.7,89.7 710.1,261.7 1275.7,60.6 1697.2,-603.8" style="fill:#1b2b3d;fill-opacity:1;fill-rule:evenodd;stroke:none" transform="matrix(0.13333333,0,0,-0.13333333,0,6666.6667)" data-index="22"/>
      <path id="path25" d="m 34358.9,21323.3 c -916.9,-16.6 -2766.5,-664.8 -4627.5,-1447.4 1852.6,1110.4 3938.5,1841.5 5380.4,1871.4 -835.2,-1060.6 -2146.1,-2283.9 -2617,-4883.3 -36.4,2015.9 994.4,3682.7 1864.1,4459.3" style="fill:#1b2b3d;fill-opacity:1;fill-rule:evenodd;stroke:none" transform="matrix(0.13333333,0,0,-0.13333333,0,6666.6667)" data-index="23"/>
    </g>
  </g>
</svg>
